<svg width="1440" height="677" viewBox="0 0 1440 677" fill="none" xmlns="http://www.w3.org/2000/svg">
<g clip-path="url(#clip0_1_2)">
<rect width="1440" height="677" fill="white"/>
<path d="M1401.28 604.931C688.784 771.832 179.948 9.94382 -84.6909 250.335C-95.343 365.575 -135.145 613.01 -109.58 630.052C-77.6232 651.355 -79.1211 693.072 -50.66 705.498C-22.1989 717.924 52.6989 732.57 153.561 720.143C234.251 710.202 415.204 716.001 495.594 720.143L1031.86 705.498C1377.39 1034.8 2321.56 389.355 1401.28 604.931Z" fill="#1BFF82" fill-opacity="0.11"/>
<path d="M1383.91 841.258C830.334 82.0198 162.722 316.358 -101.886 528.433C-112.537 630.098 -127.448 837.187 -101.886 852.221C-69.9331 871.014 -71.4309 907.817 -42.973 918.78C-14.5152 929.742 60.374 942.663 161.225 931.7C241.905 922.93 422.837 928.046 503.218 931.7L1039.42 918.78C1384.91 1209.29 1937.5 1600.5 1383.91 841.258Z" fill="#1BFF82" fill-opacity="0.15"/>
<path d="M2336.73 638.178C1600.02 54.9427 1019.56 459.527 821.423 734.723C838.39 835.527 879.489 1039.04 908.143 1046.68C943.962 1056.23 952.376 1092.09 982.73 1095.03C1013.08 1097.97 1088.7 1090.36 1182.93 1052.79C1258.31 1022.73 1434 979.2 1512.43 961.192L2025.58 805.132C2436.26 992.495 3073.43 1221.41 2336.73 638.178Z" fill="#1BFF82" fill-opacity="0.18"/>
</g>
<defs>
<clipPath id="clip0_1_2">
<rect width="1440" height="677" fill="white"/>
</clipPath>
</defs>
</svg>
